<svg xmlns="http://www.w3.org/2000/svg" xmlns:xlink="http://www.w3.org/1999/xlink" id="Layer_1" width="50" height="50" x="0" style="enable-background:new 0 0 50 50" y="0" version="1.1" viewBox="0 0 50 50" xml:space="preserve"><style type="text/css">.st0{opacity:.3}.st0,.st1{fill:#41d6c3}.st2{fill:#5aaafa}.st3{fill:#c0e6ff}.st4{fill:#008571}.st5{fill:#7cc7ff}.st6{fill:#4178be}</style><g><polygon points="25 32.6 34.8 24.5 25 16.4 15.2 24.5" class="st0"/><polygon points="25 0 25 16.4 34.8 24.5 44.7 16.3 44.7 16.3" class="st1"/><polygon points="25 16.4 25 0 5.3 16.3 5.3 16.3 15.2 24.5" class="st2"/><polygon points="25 32.6 25 50 44.7 32.7 44.7 32.7 34.8 24.5" class="st3"/><polygon points="44.7 32.7 44.7 16.3 34.8 24.5" class="st4"/><polygon points="15.2 24.5 5.3 32.7 5.3 32.7 25 50 25 32.6" class="st5"/><polygon points="5.3 16.3 5.3 32.7 15.2 24.5" class="st6"/></g></svg>