<svg xmlns="http://www.w3.org/2000/svg" xmlns:xlink="http://www.w3.org/1999/xlink" width="32" height="32" x="0" y="0" version="1.1" viewBox="0 0 32 32" xml:space="preserve" style="enable-background:new 0 0 32 32"><style type="text/css">.st1{filter:url(#Adobe_OpacityMaskFilter)}.st2{fill:#fff}.st3{fill:url(#SVGID_1_)}.st4{mask:url(#Color_1_);fill:url(#Color_2_)}.st5{fill:#061f80}</style><g id="Export"><defs><filter id="Adobe_OpacityMaskFilter" width="32" height="32" x="0" y="0" filterUnits="userSpaceOnUse"><feColorMatrix type="matrix" values="1 0 0 0 0 0 1 0 0 0 0 0 1 0 0 0 0 0 1 0"/></filter></defs><mask id="Color_1_" width="32" height="32" x="0" y="0" maskUnits="userSpaceOnUse"><g class="st1"><g><g><path d="M16,31c-0.2,0-0.3,0-0.5-0.1l-12-7C3.2,23.7,3,23.4,3,23V9c0-0.4,0.2-0.7,0.5-0.9l12-7 c0.3-0.2,0.7-0.2,1,0l12,7l-1,1.7L16,3.2L5,9.6v12.9l11,6.4l11-6.4V12h2v11c0,0.4-0.2,0.7-0.5,0.9l-12,7C16.3,31,16.2,31,16,31 z" class="st2"/></g><linearGradient id="SVGID_1_" x1="28" x2="28" y1="22" y2="11" gradientUnits="userSpaceOnUse"><stop offset="0" style="stop-color:#000;stop-opacity:0"/><stop offset=".9" style="stop-color:#000"/></linearGradient><rect width="4" height="11" x="26" y="11" class="st3"/></g></g></mask><linearGradient id="Color_2_" x1="-5867" x2="-5835" y1="-2023" y2="-2055" gradientTransform="matrix(0 -1 -1 0 -2023 -5835)" gradientUnits="userSpaceOnUse"><stop offset=".1" style="stop-color:#08bdba"/><stop offset=".9" style="stop-color:#0f62fe"/></linearGradient><polygon id="Color_44_" points="0 0 0 32 32 32 32 0" class="st4"/><path d="M16,20c-2.2,0-4-1.8-4-4s1.8-4,4-4s4,1.8,4,4S18.2,20,16,20z M16,14c-1.1,0-2,0.9-2,2s0.9,2,2,2s2-0.9,2-2 S17.1,14,16,14z" class="st5"/><circle id="dot-top" cx="23" cy="12" r="2" class="st5"/><circle id="dot-bottom" cx="9" cy="20" r="2" class="st5"/></g></svg>