<svg xmlns="http://www.w3.org/2000/svg" id="Layer_4" width="32" height="32" viewBox="0 0 32 32"><style>.st0{fill:#5596e6}.st1{fill:#7cc7ff}.st2{fill:#1d3649}</style><title>schematics_logo_32x32px</title><path d="M15.6 24.9l-8.5-5.2-4.7 2.9 13 7.9c.3.2.8.1 1-.2.3-.3.5-.9.5-1.8.1-2.8-1.3-3.6-1.3-3.6z" class="st0"/><path d="M28.4 8.8c-3.6-2.2-12.1-7.3-12.1-7.3-.2-.1-.4-.1-.6-.1-.5 0-.9.3-1.3.6-.1 0-.2 0-.2.1-.2.1-9.4 5.7-10.7 6.6L16 16.3l12.4-7.5z" class="st1"/><path d="M29.3 16.6l-5.7-3.5-7.6 4.7L2.6 9.7c-.2-.2-.4-.2-.6-.1-.1 0-.2.1-.2.1-.5.4-.6 1.3-.6 2 0 .6 0 2.7 1.3 3.7.3.1 1.5.9 6.8 4.1 2.4 1.5 6.8 4.2 6.8 4.2.2.1 2 1.3 2 4.8 0 .3 0 .7-.1 1 4.4-2.7 10.8-6.7 11.3-7 1-.8 1.5-1.2 1.5-3.2.1-1.8-1.3-2.6-1.5-2.7z" class="st0"/><path d="M29.8 15.4l-4.9-3 5.9-3.6S16.9.4 16.7.3c-.5-.2-1-.3-1.6-.1-.5.2-.9.4-1.3.7 0-.1-12.1 7.4-12.2 7.5-.2.1-.5.2-.7.5C-.2 10.1-.2 12.4.3 14c.2.7.5 1.3.9 1.8.4.6 1 .9 1.5 1.2h.1c.3.3 2.5 1.6 3.2 2l-2.8 1.7-3 1.9.7.4c9.4 5.8 14.3 8.8 14.5 8.8.2.1.3.1.5.1.6 0 1.2-.4 1.8-.7l.1-.1c.1-.1 12.2-7.6 12.3-7.6 1.2-.9 2.1-1.6 2.1-4.4-.2-2.5-2.2-3.6-2.4-3.7zM14.2 2.1c.1 0 .2-.1.2-.2.4-.3.9-.6 1.3-.6.2 0 .4 0 .6.1 0 0 8.5 5.1 12.1 7.3L16 16.3 3.5 8.7C4.8 7.8 14 2.2 14.2 2.1zm2.3 28.2c-.3.3-.8.4-1 .2l-13-7.9 4.7-2.9 8.5 5.2s1.4.8 1.4 3.6c-.1.9-.3 1.5-.6 1.8zm12.9-7.8c-.5.3-7 4.3-11.3 7 .1-.3.1-.6.1-1 0-3.5-1.8-4.7-2-4.8 0 0-4.4-2.7-6.8-4.2-5.3-3.3-6.8-4.2-6.8-4.2-1.3-.9-1.3-3-1.3-3.7 0-.7.1-1.5.6-2-.1.1 0 0 .1 0 .2-.1.4 0 .6.1L16 17.8l7.7-4.7 5.7 3.5c.2.1 1.6.9 1.6 2.7-.1 2-.6 2.4-1.6 3.2z" class="st2"/><path d="M29.3 16.6l-.6-.4-12.8 7.4c.1.1.2.1.2.1.2.1 2 1.3 2 4.8 0 .3 0 .7-.1 1 4.4-2.7 10.8-6.7 11.3-7 1-.8 1.5-1.2 1.5-3.2.1-1.8-1.3-2.6-1.5-2.7z" class="st1"/><path d="M20.4 5.8l-5 3.4 1.1.7 5-3.5zM7.1 8.6l1.3.9 3.2-.8-.5 1.8 1.2.7.9-4z" class="st2"/></svg>